HIERARCHY
ROOT Hips
{
  OFFSET 0.382225 96.6805 0.598322
  CHANNELS 6 Xposition Yposition Zposition Zrotation Xrotation Yrotation
  JOINT Spine
  {
    OFFSET 10.8089 -0.851416 0
    CHANNELS 3 Zrotation Xrotation Yrotation
    JOINT Spine1
    {
      OFFSET 18.8753 3.80116 0
      CHANNELS 3 Zrotation Xrotation Yrotation
      JOINT Spine2
      {
        OFFSET 13.4073 0.420477 0
        CHANNELS 3 Zrotation Xrotation Yrotation
        JOINT LeftShoulder
        {
          OFFSET 11.8837 -2.73209 -3.78198
          CHANNELS 3 Zrotation Xrotation Yrotation
          JOINT LeftArm
          {
            OFFSET 15.7849 0 -2.35849e-005
            CHANNELS 3 Zrotation Xrotation Yrotation
            JOINT LeftForeArm
            {
              OFFSET 30.3399 0 0
              CHANNELS 3 Zrotation Xrotation Yrotation
              JOINT LeftHand
              {
                OFFSET 26.9751 0 2.45913e-005
                CHANNELS 3 Zrotation Xrotation Yrotation
                End Site
                {
                  OFFSET 8 0 0
                }
              }
            }
          }
        }
        JOINT RightShoulder
        {
          OFFSET 11.8838 -2.7321 3.782
          CHANNELS 3 Zrotation Xrotation Yrotation
          JOINT RightArm
          {
            OFFSET -15.7848 0 -1.07056e-005
            CHANNELS 3 Zrotation Xrotation Yrotation
            JOINT RightForeArm
            {
              OFFSET -30.34 1.02096e-005 -2.53607e-005
              CHANNELS 3 Zrotation Xrotation Yrotation
              JOINT RightHand
              {
                OFFSET -26.9752 2.07668e-005 0
                CHANNELS 3 Zrotation Xrotation Yrotation
                End Site
                {
                  OFFSET -8 0 0
                }
              }
            }
          }
        }
        JOINT Neck
        {
          OFFSET 16.5588 -0.355318 0
          CHANNELS 3 Zrotation Xrotation Yrotation
          JOINT Head
          {
            OFFSET 9.28361 0.364157 0
            CHANNELS 3 Zrotation Xrotation Yrotation
            End Site
            {
              OFFSET 0 0 0
            }
          }
        }
      }
    }
  }
  JOINT LeftUpLeg
  {
    OFFSET -1.44883 -0.531424 -9.00581
    CHANNELS 3 Zrotation Xrotation Yrotation
    JOINT LeftLeg
    {
      OFFSET -42.572 0.0788889 -0.011964
      CHANNELS 3 Zrotation Xrotation Yrotation
      JOINT LeftFoot
      {
        OFFSET -40.1967 0 0
        CHANNELS 3 Zrotation Xrotation Yrotation
				JOINT LeftToe
        {
          OFFSET -10.4538 -16.5779 0.0801563
          CHANNELS 3 Zrotation Xrotation Yrotation
          End Site
          {
            OFFSET -1.0 -1.0 0.0
          }
        }
      }
    }
  }
  JOINT RightUpLeg
  {
    OFFSET -1.44865 -0.531427 9.0058
    CHANNELS 3 Zrotation Xrotation Yrotation
    JOINT RightLeg
    {
      OFFSET 42.5723 -3.24776e-005 0
      CHANNELS 3 Zrotation Xrotation Yrotation
      JOINT RightFoot
      {
        OFFSET 40.1968 0 -1.14003e-005
        CHANNELS 3 Zrotation Xrotation Yrotation
				JOINT RightToe
        {
          OFFSET 10.4538 16.5778 -0.0801573
          CHANNELS 3 Zrotation Xrotation Yrotation
          End Site
          {
            OFFSET -1.0 -1.0 0.0
          }
        }
      }
    }
  }
}
MOTION
Frames:	12
Frame Time:	0.0333333
-178.747 95.7138 -8.86656 -101.933 -85.0595 166.491 -6.58923 -3.07134 -0.0778991 15.2426 -0.0586998 -0.113042 2.7794 1.93418e-006 1.65929e-005 -3.42634 16.7963 87.3699 -6.88461 -5.10766 1.26032 1.31908 -6.25388 9.81693 -69.2233 -76.1727 -77.5094 175.008 16.7465 96.9368 -25.3965 -10.7423 -9.94943 -0.000263863 1.48309 0.2077 175.19 -87.3175 176.81 -23.508 4.63459e-006 -5.90926e-006 7.24306 3.68688 4.68142 -0.681543 19.2866 -9.77509 -6.74225 -5.72723 1.90001 5.46949 4.22162 2.5904 -90 0 0 -177.241 11.1971 -13.2612 -9.67993 -5.72838 1.45719 6.00245 3.42736 7.2933 -90 0 0
-178.753 95.7119 -8.83831 -102.156 -84.9925 166.268 -6.57398 -3.06831 -0.0497735 15.1819 -0.055622 -0.107252 2.7794 1.93418e-006 1.65929e-005 -3.45822 17.0134 87.4505 -7.01257 -5.043 1.18161 1.29016 -6.06996 9.83679 -69.763 -76.315 -78.0657 174.973 16.7804 96.9957 -25.3492 -10.7852 -9.87476 0.000896145 1.15951 0.199463 174.855 -87.9104 176.535 -23.508 4.63459e-006 -5.90926e-006 7.15166 3.71379 4.75705 -0.815762 19.4628 -9.77482 -6.57274 -5.72718 1.92185 5.41487 4.1011 2.65929 -90 0 0 -177.336 11.0267 -13.2445 -9.66379 -5.72786 1.45975 6.13224 3.57955 7.30345 -90 0 0
-178.752 95.7185 -8.82148 -101.602 -84.99 166.812 -6.51249 -2.7866 -0.0187802 15.6712 -0.0806287 -0.15384 2.7794 1.93418e-006 1.65929e-005 -3.3723 17.3923 86.8466 -8.08181 -4.51483 2.00396 0.930072 -3.88695 10.0748 -79.7725 -76.0457 -88.6464 175.122 16.1686 97.254 -24.0384 -10.5816 -10.2302 0.000836071 1.18469 0.195534 164.99 -88.0869 166.524 -23.508 4.63459e-006 -5.90926e-006 5.90755 3.38951 5.13542 -0.803072 19.4497 -9.74729 -6.54955 -5.72714 1.92472 5.41396 4.15163 2.59377 -90 0 0 -177.281 11.0356 -13.2557 -9.6753 -5.7276 1.4579 6.10854 3.57961 7.34109 -90 0 0
-178.746 95.7056 -8.78743 -102.72 -84.9859 165.698 -6.50955 -3.04197 -0.0403306 15.0868 -0.0508065 -0.0981781 2.7794 1.93418e-006 1.65929e-005 -3.48375 16.9915 87.6001 -6.85022 -5.0423 1.09154 1.1907 -5.45164 9.90372 -72.6675 -76.5098 -81.1539 174.876 16.9239 97.1114 -25.3624 -10.7495 -10.0356 0.000640761 1.26927 0.191936 -179.655 -87.7835 -177.984 -23.508 4.63459e-006 -5.90926e-006 6.92628 3.67399 5.10792 -0.850986 19.2934 -9.75118 -6.72408 -5.72717 1.9028 5.52374 4.27246 2.59288 -90 0 0 -177.395 11.0523 -13.263 -9.68304 -5.72747 1.45681 6.0477 3.52219 7.25673 -90 0 0
-178.736 95.7132 -8.75672 -102.717 -85 165.677 -6.56 -2.89946 -0.00859016 15.5482 -0.0743015 -0.142151 2.7794 1.93418e-006 1.65929e-005 -3.36989 17.3273 86.8588 -7.47159 -4.81383 2.12821 1.10632 -4.93502 9.95986 -74.984 -75.9489 -83.8205 175.038 16.3991 97.2358 -24.2746 -10.5486 -10.2977 8.47308e-005 1.48309 0.188665 172.269 -87.6465 173.792 -23.508 4.63459e-006 -5.90926e-006 6.0507 3.574 5.36126 -0.904314 19.306 -9.70232 -6.66761 -5.7271 1.91012 5.51843 4.23671 2.50998 -90 0 0 -177.357 11.0668 -13.2896 -9.77527 -5.72747 1.44231 6.09379 3.53641 7.25314 -90 0 0
-178.719 95.7023 -8.73639 -103.535 -84.9968 164.849 -6.502 -3.0873 -0.0225598 14.9976 -0.0463106 -0.0896568 2.7794 1.93418e-006 1.65929e-005 -3.50954 17.1595 87.6638 -6.82496 -4.9924 1.0799 1.16476 -5.287 9.92159 -73.226 -76.6505 -81.6815 174.93 16.7865 97.1127 -24.9774 -10.8563 -10.2167 0.00102387 1.25787 0.185668 176.071 -87.8168 177.748 -23.508 4.63459e-006 -5.90926e-006 6.94636 3.88519 5.30113 -0.923094 19.3169 -9.69775 -6.79083 -5.72709 1.89463 5.58975 4.20523 2.52668 -90 0 0 -177.437 10.9886 -13.312 -9.82194 -5.72756 1.43508 6.21728 3.65756 7.26641 -90 0 0
-178.72 95.701 -8.73322 -103.711 -85.0704 164.663 -6.50674 -3.20075 -0.00772322 14.998 -0.0463338 -0.0897046 2.7794 1.93418e-006 1.65929e-005 -3.52946 17.25 87.727 -6.82035 -5.01305 0.987175 1.15728 -5.23782 9.9269 -73.9373 -76.636 -82.3754 174.882 16.9285 97.0929 -25.1951 -10.8079 -10.239 0.00119212 1.28093 0.182988 174.026 -87.583 175.556 -23.508 4.63459e-006 -5.90926e-006 6.94453 3.86344 5.3908 -0.919792 19.227 -9.6877 -6.78602 -5.72702 1.89525 5.58192 4.21966 2.53522 -90 0 0 -177.41 11.0963 -13.3214 -9.84665 -5.72772 1.43123 6.09003 3.57739 7.18464 -90 0 0
-178.719 95.6985 -8.71696 -104.088 -85.0846 164.284 -6.5948 -2.94778 0.0298492 15.4836 -0.0709907 -0.13601 2.7794 1.93418e-006 1.65929e-005 -3.38748 17.3478 86.9459 -7.34577 -4.73824 2.0731 1.15399 -5.21383 9.9295 -74.0236 -75.8388 -82.8441 174.807 17.0994 97.1152 -25.1858 -10.3107 -10.3669 0.00125277 1.35124 0.180601 174.512 -87.4018 176.101 -23.508 4.63459e-006 -5.90926e-006 6.13905 3.70089 5.50934 -1.00369 19.2247 -9.67586 -6.70221 -5.72691 1.90615 5.55315 4.22192 2.58999 -90 0 0 -177.45 11.0802 -13.3226 -9.88684 -5.72798 1.42493 6.26089 3.67594 7.33029 -90 0 0
-178.717 95.6955 -8.71197 -104.74 -85.06 163.629 -6.64681 -2.95271 0.0494653 15.4052 -0.0669793 -0.128543 2.7794 1.93418e-006 1.65929e-005 -3.39653 17.4246 86.9628 -7.4387 -4.5047 2.04936 1.08983 -4.82059 9.97235 -75.8424 -75.9283 -84.6239 174.914 16.7959 97.151 -24.7125 -10.4702 -10.4152 0.00116088 1.48312 0.178499 170.812 -87.4956 172.375 -23.508 4.63459e-006 -5.90926e-006 6.3557 3.70074 5.44539 -1.10806 19.4324 -9.68914 -6.57224 -5.72679 1.92284 5.49381 4.01384 2.66976 -90 0 0 -177.545 10.9991 -13.3199 -9.84827 -5.72827 1.43103 6.15796 3.68868 7.25192 -90 0 0
-178.715 95.6953 -8.73503 -104.643 -85.0689 163.728 -6.66341 -2.99525 0.0907929 15.4179 -0.0676399 -0.129758 2.7794 1.93418e-006 1.65929e-005 -3.39036 17.4345 86.9307 -7.42434 -4.52247 2.06242 1.04594 -4.5523 10.0017 -76.4332 -76.029 -85.2748 175.171 16.111 97.1774 -23.5501 -10.7757 -10.3599 0.00243342 1.18463 0.176637 163.734 -88.1965 165.063 -23.508 4.63459e-006 -5.90926e-006 6.42866 3.68028 5.36286 -1.02444 19.1678 -9.67473 -6.75494 -5.72679 1.89963 5.56906 4.27781 2.60064 -90 0 0 -177.449 11.0593 -13.3251 -9.95789 -5.72868 1.41383 6.16281 3.62775 7.18109 -90 0 0
-178.716 95.693 -8.75854 -105.053 -85.0387 163.319 -6.62925 -3.17822 0.0950095 14.92 -0.042406 -0.082238 2.7794 1.93418e-006 1.65929e-005 -3.51096 17.1084 87.6937 -6.61945 -4.87352 1.0825 1.17522 -5.33032 9.91687 -73.6494 -76.6415 -82.0606 174.877 17.0203 97.0037 -25.3516 -10.7279 -10.0599 0.00252403 1.27499 0.175064 175.504 -87.4723 177.058 -23.508 4.63459e-006 -5.90926e-006 7.35948 3.92824 5.17069 -1.06305 19.2551 -9.68543 -6.71804 -5.7267 1.90442 5.53773 4.21214 2.6484 -90 0 0 -177.466 11.0564 -13.3313 -9.97954 -5.7291 1.41042 6.25698 3.63623 7.23663 -90 0 0
-178.728 95.6924 -8.78992 -104.371 -85.026 164.028 -6.65413 -2.95582 0.107631 15.3764 -0.0655141 -0.125804 2.7794 1.93418e-006 1.65929e-005 -3.39087 17.3747 86.9504 -7.39779 -4.52149 2.10693 1.06494 -4.65756 9.99003 -76.0202 -75.9947 -84.8087 174.96 16.665 97.1635 -24.6814 -10.4874 -10.2427 0.0031737 1.18872 0.173733 169.929 -87.8859 171.557 -23.508 4.63459e-006 -5.90926e-006 6.5307 3.69619 5.26732 -0.958648 19.2183 -9.73054 -6.77389 -5.72664 1.90136 5.5485 4.25938 2.67612 -90 0 0 -177.443 10.9763 -13.2797 -9.90518 -5.72953 1.42203 6.19216 3.69373 7.21627 -90 0 0
